<svg width="67" height="68" viewBox="0 0 67 68" fill="none" xmlns="http://www.w3.org/2000/svg">
<path d="M66 34C66 52.2394 51.4353 67 33.5 67C15.5647 67 1 52.2394 1 34C1 15.7606 15.5647 1 33.5 1C51.4353 1 66 15.7606 66 34Z" stroke="#3143EA" stroke-opacity="0.67" stroke-width="2"/>
<path d="M49.7576 33.4849C49.7576 42.3354 42.6921 49.4849 34.0076 49.4849C25.323 49.4849 18.2576 42.3354 18.2576 33.4849C18.2576 24.6343 25.323 17.4849 34.0076 17.4849C42.6921 17.4849 49.7576 24.6343 49.7576 33.4849Z" stroke="#0085FF" stroke-width="2"/>
<path d="M22.8409 23.697C28.9318 29.3637 23.856 34.0001 24.3636 36.0607C24.7529 37.6411 26.3939 37.6061 28.4242 40.1819C30.0485 42.2425 29.101 46.192 28.4242 47.9092M28.4242 19.0607C30.4545 21.5334 35.3611 22.6667 37.5606 22.6667C39.0833 22.1516 42.2303 21.1213 42.6363 21.1213M46.1894 24.7273C45.005 25.2425 41.6212 27.8182 40.0985 28.8485C38.3067 30.0609 32.9924 34.0001 34.0075 35.0304C35.0227 36.0607 36.5454 36.0607 37.053 37.091C37.5606 38.1213 38.0682 38.1213 37.053 39.1516C36.0379 40.1819 34.0075 40.697 35.0227 41.7273C36.0379 42.7576 35.5303 43.2728 37.053 43.7879C39.0833 45.4364 40.606 46.8789 41.1136 47.394" stroke="#0085FF" stroke-width="2"/>
</svg>
