<svg width="67" height="66" viewBox="0 0 67 66" fill="none" xmlns="http://www.w3.org/2000/svg">
<path d="M33.3198 19C31.5554 19 20.1938 25 20.1938 26C20.1937 31.2102 20.8254 34.4077 23.2229 39C25.9769 44.2752 33.3198 49.5 33.3198 49.5M33.3198 19C35.0841 19 45.9409 25 45.9409 26C45.9409 31.2102 45.2629 34.339 42.9118 39C40.4748 43.8314 33.3198 49.5 33.3198 49.5M33.3198 19V49.5M30.2907 24.5C30.2907 24.5 24.2325 27 24.2325 28.5C24.2325 32.5 29.281 40 29.281 40M40.3876 34.5C39.3969 37.6722 38.36 39.09 35.844 41" stroke="#0085FF" stroke-width="2" stroke-linecap="round"/>
<path d="M65.6395 33C65.6395 50.664 51.1786 65 33.3198 65C15.4609 65 1 50.664 1 33C1 15.336 15.4609 1 33.3198 1C51.1786 1 65.6395 15.336 65.6395 33Z" stroke="#3143EA" stroke-opacity="0.67" stroke-width="2"/>
</svg>
