<svg width="67" height="66" viewBox="0 0 67 66" fill="none" xmlns="http://www.w3.org/2000/svg">
<path d="M28.2712 41.5V45L29.2809 47L31.3003 49H35.339L37.3584 47L38.3681 45V41.5M28.2712 41.5V38C28.2712 38 22.8512 33.117 22.7179 29C22.5301 23.1974 26.9547 18.1413 32.8148 18C38.8093 17.8555 43.4964 23.0619 43.4166 29C43.3625 33.0203 38.3681 38 38.3681 38V41.5M28.2712 41.5H31.3003M38.3681 41.5H35.339M35.339 41.5V33H31.3003V41.5M35.339 41.5H31.3003" stroke="#0085FF" stroke-width="2" stroke-linecap="round"/>
<path d="M65.6395 33C65.6395 50.664 51.1786 65 33.3198 65C15.4609 65 1 50.664 1 33C1 15.336 15.4609 1 33.3198 1C51.1786 1 65.6395 15.336 65.6395 33Z" stroke="#3143EA" stroke-opacity="0.67" stroke-width="2"/>
</svg>
