<svg width="67" height="66" viewBox="0 0 67 66" fill="none" xmlns="http://www.w3.org/2000/svg">
<path d="M28.2713 41.5V45L29.281 47L31.3004 49H35.3392L37.3585 47L38.3682 45V41.5M28.2713 41.5V38C28.2713 38 22.8513 33.117 22.718 29C22.5302 23.1974 26.9549 18.1413 32.8149 18C38.8094 17.8555 43.4965 23.0619 43.4167 29C43.3626 33.0203 38.3682 38 38.3682 38V41.5M28.2713 41.5H31.3004M38.3682 41.5H35.3392M35.3392 41.5V33H31.3004V41.5M35.3392 41.5H31.3004" stroke="#0085FF" stroke-width="2" stroke-linecap="round"/>
<path d="M65.6395 33C65.6395 50.664 51.1786 65 33.3198 65C15.4609 65 1 50.664 1 33C1 15.336 15.4609 1 33.3198 1C51.1786 1 65.6395 15.336 65.6395 33Z" stroke="#3143EA" stroke-opacity="0.67" stroke-width="2"/>
</svg>
