<svg width="85" height="12" viewBox="0 0 85 12" fill="none" xmlns="http://www.w3.org/2000/svg">
<g clip-path="url(#clip0)">
<path d="M20.3497 12H16.1627C15.861 11.5817 15.5417 11.1514 15.1869 10.6733H6.95477L8.76441 8.1992C10.3079 8.1992 11.8514 8.1992 13.3772 8.1992L12.0821 6.43028L10.1305 3.75299L8.19668 6.43028L5.26932 10.4582C4.52417 11.4741 4.1516 11.988 4.1516 12H6.10352e-05C0.408118 11.4382 0.638759 11.1275 0.691983 11.0677L0.958107 10.6853L1.9339 9.35857L4.86126 5.33068L7.80636 1.29084L8.74667 0H8.76441H11.5321C11.7805 0.346614 12.0998 0.776892 12.4724 1.29084L15.4353 5.31873L18.3981 9.34661L19.3739 10.6733C19.4981 10.8287 19.5868 10.9602 19.64 11.0558C19.6755 11.1275 19.9061 11.4382 20.3497 12Z" fill="#F2F2F2"/>
<path d="M26.098 0V0.131474V0.513944V1.86454C26.098 2.54582 26.098 3.23904 26.098 3.95618C26.098 4.67331 26.098 5.34263 26.098 5.9761C26.098 6.64542 26.098 7.32669 26.098 8.03187C26.098 8.73705 26.098 9.43028 26.098 10.1116V11.4741V11.8566V11.988H22.39V11.8566V11.4741V10.1235C22.39 9.44223 22.39 8.749 22.39 8.04383C22.39 7.33865 22.39 6.65737 22.39 5.98805C22.39 5.35458 22.39 4.67331 22.39 3.96813C22.39 3.251 22.39 2.55777 22.39 1.87649V0.513944V0.131474V0H26.098Z" fill="#F2F2F2"/>
<path d="M32.7333 0H32.8752H33.301H34.7736C35.5187 0 36.2816 0 37.0622 0C37.8429 0 38.588 0 39.2977 0C40.0074 0 40.7525 0 41.5154 0C42.2783 0 43.0412 0 43.7863 0H45.2766H45.7024H45.8266V2.49801H45.7024H45.2766H43.7863C43.0412 2.49801 42.2783 2.49801 41.5154 2.49801C40.7525 2.49801 40.0074 2.49801 39.2977 2.49801C37.6655 2.49801 36.1574 2.49801 34.7736 2.49801C34.2768 2.49801 33.6559 2.49801 32.893 2.49801C32.8575 2.49801 32.822 2.49801 32.7865 2.49801C32.1656 2.52191 31.8285 2.78486 31.8107 3.28685V3.33466V3.96813V5.92829C31.8107 6.2988 31.8107 6.64542 31.8107 6.98008C31.8107 7.31474 31.8107 7.61355 31.8107 7.88845V8.54582V8.71315C31.8107 8.73705 31.8107 8.76096 31.8107 8.79681C31.8107 9.07171 31.864 9.26295 31.9882 9.37052C32.1123 9.46614 32.3075 9.5259 32.5914 9.5259H32.6446H32.8752H34.4188C35.1816 9.5259 35.9623 9.5259 36.7784 9.5259C37.5945 9.5259 38.3574 9.5259 39.0848 9.5259C39.8299 9.5259 40.6106 9.5259 41.4089 9.5259C42.2073 9.5259 42.9879 9.5259 43.7508 9.5259H45.2944H45.7202H45.8976V12.0239H45.7202H45.2944H43.7508C42.9879 12.0239 42.2073 12.0239 41.4089 12.0239C40.6106 12.0239 39.8299 12.0239 39.0848 12.0239C38.3574 12.0239 37.5945 12.0239 36.7784 12.0239C35.9623 12.0239 35.1816 12.0239 34.4188 12.0239H32.8752C32.751 12.0239 32.6091 12.0239 32.4849 12.0239C32.4672 12.0239 32.4494 12.0239 32.4139 12.0239C31.5446 12.0239 30.8172 11.9522 30.2495 11.8207C29.6817 11.6892 29.2559 11.4741 28.9366 11.1873C28.635 10.9004 28.4221 10.5777 28.2979 10.2072C28.1737 9.83665 28.1205 9.37052 28.1205 8.82072C28.1205 8.80877 28.1205 8.79681 28.1205 8.78486V8.71315V8.54582V7.88845V5.92829V3.96813V3.33466V3.20319V3.15538V3.08367C28.1382 1.94821 28.5108 1.14741 29.2559 0.693227C29.9834 0.227092 31.1543 0 32.7333 0Z" fill="#F2F2F2"/>
<path d="M58.6006 4.75697H58.707H58.9377C59.0441 4.75697 59.1506 4.75697 59.2925 4.75697C59.4167 4.75697 59.5764 4.75697 59.736 4.75697C60.4812 4.75697 61.2973 4.75697 62.1844 4.76892C63.0715 4.76892 63.8698 4.78088 64.5972 4.78088C64.7569 4.78088 64.9166 4.78088 65.0585 4.78088C65.2005 4.78088 65.3246 4.78088 65.4134 4.78088H65.644H65.715V6.32271V6.41833C65.715 6.45418 65.715 6.47809 65.715 6.50199C65.715 6.5259 65.715 6.5498 65.715 6.58566C65.715 6.62151 65.715 6.65737 65.715 6.70518C65.715 6.95618 65.715 7.24303 65.6972 7.55379C65.6972 7.86454 65.6795 8.15139 65.6795 8.4263C65.6795 8.4741 65.6795 8.52191 65.6795 8.56972C65.6795 8.61753 65.6795 8.66534 65.6795 8.71315V8.80877C65.6795 9.37052 65.6263 9.8247 65.5021 10.1952C65.3779 10.5657 65.1827 10.8884 64.8634 11.1753C64.5618 11.4622 64.1182 11.6653 63.5505 11.8088C62.9828 11.9402 62.2731 12.012 61.386 12.012H61.3683H61.2973H60.9957H59.9312C59.399 12.012 58.8667 12.012 58.299 12.012C57.749 12.012 57.2167 12.012 56.7022 12.012C56.2055 12.012 55.6732 12.012 55.1055 12.012C54.5378 12.012 53.9878 12.012 53.4733 12.012H52.4088H52.2136C52.1959 12.012 52.1781 12.012 52.1426 12.012C51.2733 12.012 50.5459 11.9402 49.9782 11.8088C49.4104 11.6773 48.9846 11.4622 48.6653 11.1753C48.3637 10.8884 48.1508 10.5657 48.0266 10.1952C47.9024 9.8247 47.8492 9.35857 47.8492 8.80877C47.8492 8.79681 47.8492 8.78486 47.8492 8.77291V8.7012V8.53387V7.87649V5.92829V3.96813V3.33466V3.20319V3.15538V3.08366C47.8669 1.94821 48.2395 1.14741 48.9846 0.693226C49.7298 0.239043 50.883 0.0119514 52.4797 0.0119514H52.6217H53.0475H54.5378C55.3006 0.0119514 56.0813 0.0119514 56.8619 0.0119514C57.6425 0.0119514 58.3877 0.0119514 59.0796 0.0119514C59.807 0.0119514 60.5699 0.0119514 61.3328 0.0119514C62.1134 0.0119514 62.8763 0.0119514 63.6215 0.0119514H65.1295H65.5198H65.6617V2.50996H65.5198H65.1295H63.6215C62.8763 2.50996 62.1134 2.50996 61.3328 2.50996C60.5522 2.50996 59.807 2.50996 59.0796 2.50996C57.4296 2.50996 55.9039 2.50996 54.5378 2.50996C54.0233 2.50996 53.3846 2.50996 52.6217 2.50996C52.5862 2.50996 52.5507 2.50996 52.5152 2.50996C51.8943 2.53386 51.5572 2.79681 51.5394 3.2988V3.34661V3.98008V5.94024C51.5394 6.31076 51.5394 6.65737 51.5394 6.99203C51.5394 7.32669 51.5394 7.6255 51.5394 7.9004V8.55777V8.7251C51.5394 8.749 51.5394 8.77291 51.5394 8.80877C51.5394 9.08367 51.5927 9.2749 51.7168 9.38247C51.841 9.47809 52.0362 9.53785 52.3201 9.53785H52.3733H52.391H53.4555H56.6845C57.199 9.53785 57.7312 9.53785 58.2812 9.53785C58.8312 9.53785 59.3812 9.53785 59.9135 9.53785H60.978H61.0844C61.1021 9.53785 61.1199 9.53785 61.1554 9.53785C61.457 9.53785 61.6521 9.49004 61.7763 9.39442C61.9005 9.29881 61.9537 9.10757 61.9537 8.82072C61.9537 8.79681 61.9537 8.78486 61.9537 8.77291V8.7251C61.9537 8.67729 61.9537 8.64144 61.9537 8.59363C61.9537 8.54582 61.9537 8.49801 61.9537 8.43825C61.9537 8.18725 61.9537 7.9004 61.9715 7.58964C61.9715 7.55379 61.9715 7.50598 61.9715 7.43426C61.9715 7.36255 61.9715 7.31474 61.9715 7.27889C61.0667 7.27889 60.3038 7.27889 59.6828 7.27889C59.5054 7.27889 59.3457 7.27889 59.2038 7.27889C59.0796 7.27889 58.9554 7.27889 58.849 7.27889H58.6183H58.5474H58.3522L54.8216 4.76892C56.2942 4.74502 57.5361 4.75697 58.6006 4.75697Z" fill="#F2F2F2"/>
<path d="M67.6311 0H67.8262H68.3762H70.3456C71.3391 0 72.3504 0 73.3971 0C74.4261 0 75.4197 0 76.3422 0C77.2825 0 78.2761 0 79.3051 0C80.3341 0 81.3276 0 82.3034 0H84.2727H84.8227H85.0179V2.49801H84.805H84.255H82.2857C81.6825 2.49801 80.2986 2.49801 78.1341 2.49801C78.1341 3.58566 78.1341 4.75697 78.1341 6.01195C78.1341 7.50598 78.1341 8.88048 78.1341 10.1235C78.1164 10.3625 78.1164 10.5896 78.1164 10.8287C78.1164 11.0677 78.1164 11.2829 78.1164 11.4861V11.8685V12H74.4084V11.8685V11.4741C74.4084 11.2709 74.4084 11.0558 74.4084 10.8167C74.4084 10.5777 74.4084 10.3506 74.4261 10.1116C74.4261 8.85657 74.4261 7.48207 74.4261 5.9761C74.4261 4.60159 74.4261 3.44223 74.4261 2.4741C72.3858 2.4741 71.0197 2.4741 70.3278 2.4741H68.3585H67.8085H67.6133V0H67.6311Z" fill="#F2F2F2"/>
</g>
<defs>
<clipPath id="clip0">
<rect width="85" height="12" fill="white"/>
</clipPath>
</defs>
</svg>
